name analog
datacolumns 19
datarows 52
range 0.0 0.025500000000000002
endheader
time	ground_force_vx	ground_force_vy	ground_force_vz	ground_force_px	ground_force_py	ground_force_pz	l_ground_force_vx	l_ground_force_vy	l_ground_force_vz	l_ground_force_px	l_ground_force_py	l_ground_force_pz	ground_torque_x	ground_torque_y	ground_torque_z	l_ground_torque_x	l_ground_torque_y	l_ground_torque_z
0.0	-0.0	-0.0	-0.0	-6.326362133026123	23.62460708618164	-345.72314453125	9.93560791015625	-24.72879409790039	-643.1322631835938	-0.0	-0.0	-0.0	-0.0	-0.0	-0.0	220409.5	-50540.34375	3771.121337890625
0.0005	-0.0	-0.0	-0.0	-5.898256778717041	23.97090148925781	-345.07733154296875	10.553893089294434	-24.91073226928711	-642.7615966796875	-0.0	-0.0	-0.0	-0.0	-0.0	-0.0	220092.296875	-50674.75390625	3829.638916015625
0.001	-0.0	-0.0	-0.0	-5.882566928863525	24.15699958801269	-347.5501403808594	10.462203025817873	-24.56330680847168	-641.05908203125	-0.0	-0.0	-0.0	-0.0	-0.0	-0.0	219676.046875	-50681.97265625	4033.14111328125
0.0015	-0.0	-0.0	-0.0	-5.806829929351807	24.15433883666992	-348.5671081542969	10.556583404541016	-24.90525245666504	-640.681640625	-0.0	-0.0	-0.0	-0.0	-0.0	-0.0	219686.125	-50391.734375	3829.317138671875
0.002	-0.0	-0.0	-0.0	-5.795894622802734	24.151552200317383	-350.6414794921875	10.643752098083496	-24.55649948120117	-637.5994262695312	-0.0	-0.0	-0.0	-0.0	-0.0	-0.0	219595.03125	-50324.7109375	4005.462158203125
0.0025	-0.0	-0.0	-0.0	-5.78164005279541	24.25482177734375	-351.7897033691406	10.995326042175291	-24.294851303100582	-638.2744140625	-0.0	-0.0	-0.0	-0.0	-0.0	-0.0	219129.375	-50249.02734375	3975.5576171875
0.003	-0.0	-0.0	-0.0	-5.26922607421875	24.66301918029785	-354.5351867675781	10.479461669921877	-24.205087661743164	-638.28173828125	-0.0	-0.0	-0.0	-0.0	-0.0	-0.0	218993.75	-50155.84375	3918.619140625
0.0035	-0.0	-0.0	-0.0	-5.539978981018066	23.99391746520996	-355.5579833984375	10.727092742919922	-23.860618591308597	-636.1610717773438	-0.0	-0.0	-0.0	-0.0	-0.0	-0.0	218701.625	-50025.07421875	3888.71337890625
0.004	-0.0	-0.0	-0.0	-5.263420104980469	23.90812873840332	-356.0173645019531	10.560144424438477	-24.025270462036133	-636.5454711914062	-0.0	-0.0	-0.0	-0.0	-0.0	-0.0	218058.703125	-49574.53125	3886.8017578125
0.0045000000000000005	-0.0	-0.0	-0.0	-5.531051635742188	24.58454704284668	-360.5233154296875	10.817187309265137	-24.282958984375	-634.38671875	-0.0	-0.0	-0.0	-0.0	-0.0	-0.0	218132.109375	-49563.32421875	3798.522216796875
0.005	-0.0	-0.0	-0.0	-5.349466800689697	24.34524345397949	-360.23101806640625	10.29811191558838	-23.94280433654785	-634.4385986328125	-0.0	-0.0	-0.0	-0.0	-0.0	-0.0	217329.703125	-49408.84765625	3740.1923828125
0.0055	-0.0	-0.0	-0.0	-5.266636371612549	24.6859073638916	-361.32855224609375	10.467872619628906	-23.762451171875	-632.6936645507812	-0.0	-0.0	-0.0	-0.0	-0.0	-0.0	216786.171875	-48828.3671875	3679.75
0.006	-0.0	-0.0	-0.0	-4.99578857421875	24.071781158447266	-364.4947204589844	10.461753845214844	-23.670211791992188	-631.6393432617188	-0.0	-0.0	-0.0	-0.0	-0.0	-0.0	216445.859375	-48540.97265625	3768.0791015625
0.006500000000000001	-0.0	-0.0	-0.0	-4.926688194274902	24.864032745361328	-365.9474792480469	10.364449501037598	-23.59235191345215	-630.2020874023438	-0.0	-0.0	-0.0	-0.0	-0.0	-0.0	215915.53125	-48420.97265625	3739.0478515625
0.007	-0.0	-0.0	-0.0	-4.992384910583496	24.86398124694824	-369.7659301757813	9.933454513549805	-23.7478141784668	-626.42041015625	-0.0	-0.0	-0.0	-0.0	-0.0	-0.0	215322.5625	-48218.69140625	3503.5498046875
0.0075	-0.0	-0.0	-0.0	-5.363060474395752	24.94956588745117	-369.1281127929688	10.188384056091309	-22.974720001220703	-624.6585083007812	-0.0	-0.0	-0.0	-0.0	-0.0	-0.0	214428.578125	-47796.51953125	3504.000244140625
0.008	-0.0	-0.0	-0.0	-5.445370197296143	25.13477325439453	-370.9227600097656	9.762742042541504	-23.4844970703125	-622.5642700195312	-0.0	-0.0	-0.0	-0.0	-0.0	-0.0	213675.078125	-47579.0078125	3533.2841796875
0.0085	-0.0	-0.0	-0.0	-6.301620006561279	25.213138580322266	-375.38763427734375	9.760526657104492	-22.71265411376953	-621.1499633789062	-0.0	-0.0	-0.0	-0.0	-0.0	-0.0	213346.9375	-47181.3203125	3386.00341796875
0.009000000000000001	-0.0	-0.0	-0.0	-5.895222187042236	25.313034057617188	-377.5203552246094	9.681538581848145	-22.870512008666992	-618.3475341796875	-0.0	-0.0	-0.0	-0.0	-0.0	-0.0	212240.28125	-46892.4765625	3441.29833984375
0.0095	-0.0	-0.0	-0.0	-6.31536340713501	25.59899139404297	-379.359375	10.019389152526855	-22.69376564025879	-615.6028442382812	-0.0	-0.0	-0.0	-0.0	-0.0	-0.0	211245.796875	-46703.203125	3528.085693359375
0.01	-0.0	-0.0	-0.0	-5.810051441192627	25.85160255432129	-382.4638977050781	9.93814468383789	-21.99715232849121	-612.81103515625	-0.0	-0.0	-0.0	-0.0	-0.0	-0.0	210924.6875	-46304.6171875	3471.324951171875
0.0105	-0.0	-0.0	-0.0	-6.314686298370361	25.332277297973636	-383.5229187011719	10.026917457580566	-21.984336853027344	-611.005126953125	-0.0	-0.0	-0.0	-0.0	-0.0	-0.0	210204.171875	-46115.59375	3442.57568359375
0.011	-0.0	-0.0	-0.0	-5.915224552154541	25.944747924804688	-388.08294677734375	10.01901626586914	-21.80489730834961	-608.2847900390625	-0.0	-0.0	-0.0	-0.0	-0.0	-0.0	209138.140625	-45837.96484375	3385.947265625
0.0115	-0.0	-0.0	-0.0	-5.985058784484863	26.548938751220703	-390.2008666992188	10.099410057067873	-21.47844123840332	-607.1532592773438	-0.0	-0.0	-0.0	-0.0	-0.0	-0.0	208717.296875	-45587.05859375	3383.427734375
0.012	-0.0	-0.0	-0.0	-6.8812994956970215	26.11520767211914	-392.0616455078125	9.932831764221191	-21.37108421325684	-604.3923950195312	-0.0	-0.0	-0.0	-0.0	-0.0	-0.0	208038.953125	-45311.46875	3297.12939453125
0.0125	-0.0	-0.0	-0.0	-7.213772773742676	26.224782943725582	-394.4533996582031	10.015803337097168	-21.27422142028809	-602.2864990234375	-0.0	-0.0	-0.0	-0.0	-0.0	-0.0	207248.15625	-45016.55859375	3268.560546875
0.013000000000000001	-0.0	-0.0	-0.0	-6.987576484680176	26.815767288208008	-396.9742431640625	9.34373950958252	-21.26234245300293	-601.2391357421875	-0.0	-0.0	-0.0	-0.0	-0.0	-0.0	206269.484375	-44881.375	3206.907470703125
0.0135	-0.0	-0.0	-0.0	-7.663668632507324	26.658418655395508	-399.7496032714844	10.02431869506836	-20.42000770568848	-597.3751220703125	-0.0	-0.0	-0.0	-0.0	-0.0	-0.0	206191.734375	-44668.30078125	3408.353515625
0.014	-0.0	-0.0	-0.0	-8.09670352935791	26.756267547607425	-401.5656127929688	10.192634582519531	-20.31096649169922	-597.037353515625	-0.0	-0.0	-0.0	-0.0	-0.0	-0.0	205014.859375	-44306.0703125	3295.813232421875
0.0145	-0.0	-0.0	-0.0	-8.403200149536133	26.552160263061523	-402.67681884765625	9.755088806152344	-20.219497680664062	-592.6443481445312	-0.0	-0.0	-0.0	-0.0	-0.0	-0.0	204153.09375	-44331.296875	3290.3671875
0.015	-0.0	-0.0	-0.0	-8.372570991516113	26.64999008178711	-407.1292724609375	9.85004711151123	-20.392902374267575	-592.1611328125	-0.0	-0.0	-0.0	-0.0	-0.0	-0.0	203700.34375	-43810.80859375	3259.603759765625
0.0155	-0.0	-0.0	-0.0	-8.474998474121094	27.15345001220703	-408.6292114257813	9.843674659729004	-19.87237930297852	-590.7138061523438	-0.0	-0.0	-0.0	-0.0	-0.0	-0.0	202946.90625	-43522.875	3119.90966796875
0.016	-0.0	-0.0	-0.0	-8.719976425170898	27.0730094909668	-410.8020935058594	9.685845375061035	-19.44706916809082	-587.3246459960938	-0.0	-0.0	-0.0	-0.0	-0.0	-0.0	202185.1875	-43358.05078125	3116.673095703125
0.0165	-0.0	-0.0	-0.0	-8.747214317321777	26.997350692749023	-413.4829711914063	9.66614818572998	-19.780744552612305	-585.5403442382812	-0.0	-0.0	-0.0	-0.0	-0.0	-0.0	201107.328125	-43118.27734375	3085.7978515625
0.017	-0.0	-0.0	-0.0	-9.23598575592041	27.27855491638184	-414.93115234375	9.922011375427246	-19.61079788208008	-582.0223999023438	-0.0	-0.0	-0.0	-0.0	-0.0	-0.0	200667.0	-42876.74609375	3177.26416015625
0.0175	-0.0	-0.0	-0.0	-8.479717254638672	26.790985107421875	-416.02728271484375	9.406805038452148	-19.77716445922852	-582.7476196289062	-0.0	-0.0	-0.0	-0.0	-0.0	-0.0	199767.875	-42455.60546875	2948.823974609375
0.018000000000000002	-0.0	-0.0	-0.0	-9.17430591583252	27.55086898803711	-416.4560852050781	9.328768730163574	-19.614450454711918	-578.18115234375	-0.0	-0.0	-0.0	-0.0	-0.0	-0.0	198704.8125	-42673.29296875	3055.866943359375
0.0185	-0.0	-0.0	-0.0	-8.945272445678711	27.550973892211918	-419.2437744140625	9.984874725341797	-19.434341430664062	-576.49169921875	-0.0	-0.0	-0.0	-0.0	-0.0	-0.0	198218.421875	-42179.0859375	2998.233154296875
0.019	-0.0	-0.0	-0.0	-9.615108489990234	27.739164352416992	-422.6204223632813	9.318280220031738	-19.706632614135746	-575.0239868164062	-0.0	-0.0	-0.0	-0.0	-0.0	-0.0	197572.3125	-42039.48828125	3143.5703125
0.0195	-0.0	-0.0	-0.0	-9.193662643432615	27.472064971923828	-419.48089599609375	9.562162399291992	-19.87237930297852	-571.925048828125	-0.0	-0.0	-0.0	-0.0	-0.0	-0.0	196470.859375	-41840.1171875	3115.23291015625
0.02	-0.0	-0.0	-0.0	-8.856999397277832	27.981918334960938	-424.482421875	9.071133613586426	-20.03400039672852	-569.46630859375	-0.0	-0.0	-0.0	-0.0	-0.0	-0.0	196136.984375	-41252.60546875	2939.364013671875
0.0205	-0.0	-0.0	-0.0	-9.892176628112791	27.625333786010746	-426.01568603515625	9.137210845947266	-19.876197814941406	-568.7830200195312	-0.0	-0.0	-0.0	-0.0	-0.0	-0.0	195407.375	-40912.91796875	2943.3193359375
0.021	-0.0	-0.0	-0.0	-9.456314086914062	27.38884735107422	-426.6822814941406	8.96760368347168	-20.05291175842285	-566.323974609375	-0.0	-0.0	-0.0	-0.0	-0.0	-0.0	194611.765625	-40786.59375	3024.403564453125
0.021500000000000002	-0.0	-0.0	-0.0	-9.214781761169434	27.782609939575195	-428.8017578125	9.117414474487305	-20.4866886138916	-563.9266357421875	-0.0	-0.0	-0.0	-0.0	-0.0	-0.0	194361.140625	-40705.26953125	2992.052734375
0.022	-0.0	-0.0	-0.0	-9.645320892333984	27.8819522857666	-428.88616943359375	9.032373428344728	-20.26179313659668	-563.514892578125	-0.0	-0.0	-0.0	-0.0	-0.0	-0.0	194015.1875	-40260.41796875	2851.721435546875
0.0225	-0.0	-0.0	-0.0	-9.813156127929688	27.36303329467773	-431.8121337890625	8.669156074523926	-20.67947196960449	-562.1181030273438	-0.0	-0.0	-0.0	-0.0	-0.0	-0.0	193398.234375	-39984.75	2794.794677734375
0.023	-0.0	-0.0	-0.0	-9.377918243408203	27.28470802307129	-429.99127197265625	8.326376914978027	-21.02881622314453	-561.8338623046875	-0.0	-0.0	-0.0	-0.0	-0.0	-0.0	193147.25	-39818.421875	2814.505126953125
0.0235	-0.0	-0.0	-0.0	-9.734906196594238	27.16287040710449	-430.2816467285156	8.250102996826172	-21.09628295898437	-560.4547119140625	-0.0	-0.0	-0.0	-0.0	-0.0	-0.0	192675.375	-40008.43359375	2701.347412109375
0.024	-0.0	-0.0	-0.0	-9.907899856567385	27.168188095092773	-431.6954040527344	8.317461013793945	-21.281274795532227	-559.0084838867188	-0.0	-0.0	-0.0	-0.0	-0.0	-0.0	192561.9375	-39368.01171875	2810.025390625
0.0245	-0.0	-0.0	-0.0	-9.846735954284668	27.374216079711918	-432.4251708984375	7.890925884246826	-21.210147857666016	-559.7241821289062	-0.0	-0.0	-0.0	-0.0	-0.0	-0.0	192222.0	-39219.8203125	2698.203125
0.025	-0.0	-0.0	-0.0	-10.54235553741455	26.928709030151367	-431.03662109375	7.797737598419189	-21.30745887756348	-559.043701171875	-0.0	-0.0	-0.0	-0.0	-0.0	-0.0	192160.765625	-39315.63671875	2669.89697265625
0.025500000000000002	-0.0	-0.0	-0.0	-9.913808822631836	27.262470245361328	-433.7729187011719	7.633585453033447	-21.8815860748291	-558.9390869140625	-0.0	-0.0	-0.0	-0.0	-0.0	-0.0	192116.390625	-38818.5234375	2613.287841796875
